<svg xmlns="http://www.w3.org/2000/svg" version="1.1" xmlns:xlink="http://www.w3.org/1999/xlink" xmlns:svgjs="http://svgjs.com/svgjs" width="1440" height="560" preserveAspectRatio="none" viewBox="0 0 1440 560"><g mask="url(&quot;#SvgjsMask1000&quot;)" fill="none"><rect width="1440" height="560" x="0" y="0" fill="#0e2a47"></rect><path d="M0,661.819C121.722,646.756,221.599,571.676,324.771,505.354C427.929,439.04,544.223,383.101,601.917,274.886C661.101,163.876,659.553,32.251,643.524,-92.525C627.312,-218.722,608.808,-361.814,509.85,-441.788C412.378,-520.56,266.695,-463.682,145.376,-495.106C29.731,-525.061,-63.448,-632.445,-182.368,-621.088C-307.379,-609.149,-430.42,-537.838,-500.225,-433.447C-567.91,-332.227,-520.961,-197.713,-545.26,-78.397C-571.655,51.21,-680.309,167.847,-648.842,296.316C-616.504,428.344,-499.323,525.962,-380.89,592.677C-266.138,657.318,-130.709,677.994,0,661.819" fill="#0b2239"></path><path d="M1440 1024.353C1537.491 1032.656 1647.964 1064.266 1727.04 1006.643 1806.088 949.0409999999999 1803.282 832.4780000000001 1831.732 738.898 1856.24 658.282 1883.454 580.677 1882.153 496.428 1880.7069999999999 402.786 1887.526 296.065 1823.8310000000001 227.40800000000002 1760.295 158.92200000000003 1650.438 174.877 1560.478 149.69099999999997 1471.933 124.90100000000001 1390.925 73.894 1299.215 80.52999999999997 1195.0720000000001 88.06599999999997 1085.453 114.89600000000002 1012.258 189.36 937.617 265.295 909.566 376.577 903.71 482.89300000000003 898.151 583.817 929.273 682.684 980.279 769.948 1027.989 851.573 1100.026 914.51 1182.75 960.289 1261.6680000000001 1003.961 1350.129 1016.6990000000001 1440 1024.353" fill="#113255"></path></g><defs><mask id="SvgjsMask1000"><rect width="1440" height="560" fill="#ffffff"></rect></mask></defs></svg>
